# xmcd
#
# Track frame offsets:
#	150
#	13022
#	24172
#	37086
#	48988
#	60907
#	73068
#	93423
#	103738
#	116627
#	127788
#	142363
#	161705
#	177090
#	190508
#	207358
#	221189
#	233814
#	248720
#	266336
#
# Disc length: 3770 seconds
#
# Revision: 3
# Processed by: cddbd v1.5.2PL0 Copyright (c) Steve Scherf et al.
# Submitted via: audiograbber 1.83.01
#
DISCID=1a0eb814
DTITLE=The Cats - 100 [CD 3)
DYEAR=2008
DGENRE=Pop
TTITLE0=Jukebox [mono]
TTITLE1=A Fool Never Learns [mono]
TTITLE2=Whitout Your Love
TTITLE3=Hopeless Try [mono]
TTITLE4=I Gotta Know What's Going On
TTITLE5=How Could I Be So Blind
TTITLE6=Hooray For Michael
TTITLE7=I Like The Way
TTITLE8=Remember The Good Times
TTITLE9=I'm Ashamed  To Tell [mono]
TTITLE10=Country Woman
TTITLE11=Somewhere Up There
TTITLE12=Mandy My Dear
TTITLE13=Today
TTITLE14=She's So In Love
TTITLE15=My Friend Joe
TTITLE16=Dance Dance
TTITLE17=Lookin' Back Over My Yesterday
TTITLE18=Cindy
TTITLE19=Latin Lovers
EXTD=
EXTT0=
EXTT1=
EXTT2=
EXTT3=
EXTT4=
EXTT5=
EXTT6=
EXTT7=
EXTT8=
EXTT9=
EXTT10=
EXTT11=
EXTT12=
EXTT13=
EXTT14=
EXTT15=
EXTT16=
EXTT17=
EXTT18=
EXTT19=
PLAYORDER=
